<svg width="53" height="43" viewBox="0 0 53 43" fill="none" xmlns="http://www.w3.org/2000/svg">
<g clip-path="url(#clip0_106_136)">
<path d="M52.5792 38.8596L28.7292 1.23457C28.2414 0.465273 27.4017 0 26.4998 0C25.598 0 24.7583 0.465273 24.2705 1.23457L0.420521 38.8596C0.163143 39.2656 0.018323 39.7344 0.00127402 40.2167C-0.015775 40.6991 0.0955758 41.1772 0.32363 41.6008C0.55179 42.0244 0.888189 42.3778 1.2975 42.624C1.70682 42.8702 2.17394 43.0001 2.64983 43H50.3498C51.3196 43 52.2115 42.4633 52.6761 41.6C52.9041 41.1765 53.0154 40.6985 52.9984 40.2163C52.9813 39.7341 52.8365 39.2654 52.5792 38.8596ZM26.4998 7.6577L33.5712 18.8125H26.4998L21.1998 24.1875L18.048 20.9911L26.4998 7.6577Z" fill="#211A1D"/>
</g>
<defs>
<clipPath id="clip0_106_136">
<rect width="53" height="43" fill="white"/>
</clipPath>
</defs>
</svg>
