<svg width="51" height="63" viewBox="0 0 51 63" fill="none" xmlns="http://www.w3.org/2000/svg">
<path d="M33.3462 11.8125C36.5962 11.8125 39.2308 9.16822 39.2308 5.90625C39.2308 2.64428 36.5962 0 33.3462 0C30.0961 0 27.4615 2.64428 27.4615 5.90625C27.4615 9.16822 30.0961 11.8125 33.3462 11.8125ZM13.938 39.0637L12.1235 43.3113H3.92308C1.7568 43.3113 0 45.0745 0 47.2488C0 49.423 1.7568 51.1863 3.92308 51.1863H13.4181C15.7781 51.1863 17.9027 49.7786 18.8259 47.6068L19.9035 45.0819L18.5954 44.3067C16.472 43.0479 14.9101 41.185 13.938 39.0637ZM47.0769 27.5613H41.679L38.4842 21.009C36.9517 17.8652 34.1381 15.5667 30.9102 14.741L22.196 12.1398C18.7266 11.3031 15.1137 12.0721 12.2854 14.2488L7.42197 17.9907C5.70195 19.3134 5.37584 21.7842 6.6962 23.5106C8.01656 25.2369 10.4771 25.5605 12.1959 24.239L17.0617 20.4971C18.002 19.7724 19.1998 19.5128 20.1597 19.7416L21.9619 20.2794L17.3694 31.0324C15.8223 34.6598 17.2088 38.9086 20.5937 40.9143L31.0119 47.0876L27.6442 57.8825C26.9969 59.957 28.1481 62.1657 30.215 62.8154C30.6061 62.9385 31.0009 62.9975 31.3895 62.9975C33.0581 62.9975 34.6052 61.9184 35.1312 60.2351L39.0101 47.8C39.7346 45.2443 38.6558 42.4992 36.3571 41.1075L28.8493 36.6606L32.6878 27.0285L35.1728 32.1263C36.1536 34.1369 38.2279 35.435 40.458 35.435H47.0769C49.2432 35.435 51 33.6718 51 31.4975C51 29.3233 49.2432 27.5613 47.0769 27.5613Z" fill="#211A1D"/>
</svg>
