<svg width="40" height="46" viewBox="0 0 40 46" fill="none" xmlns="http://www.w3.org/2000/svg">
<path d="M38.5715 27.3125C38.5715 37.6355 30.259 46 20 46C9.74109 46 1.42859 37.6355 1.42859 27.3125C1.42859 17.9688 8.24109 10.2242 17.1429 8.84961V5.75H14.6429C14.0536 5.75 13.5714 5.26484 13.5714 4.67188V1.07812C13.5714 0.485156 14.0536 0 14.6429 0H25.3572C25.9465 0 26.4286 0.485156 26.4286 1.07812V4.67188C26.4286 5.26484 25.9465 5.75 25.3572 5.75H22.8572V8.84961C26.2054 9.3707 29.259 10.7902 31.759 12.8566L34.2143 10.3859C34.634 9.96367 35.3125 9.96367 35.7322 10.3859L38.259 12.9285C38.6786 13.3508 38.6786 14.0336 38.259 14.4559L35.634 17.0973L35.5804 17.1512C37.4732 20.0621 38.5715 23.557 38.5715 27.3125ZM22.8572 30.5469V16.9355C22.8572 16.3426 22.375 15.8574 21.7857 15.8574H18.2143C17.625 15.8574 17.1429 16.3426 17.1429 16.9355V30.5469C17.1429 31.1398 17.625 31.625 18.2143 31.625H21.7857C22.375 31.625 22.8572 31.1398 22.8572 30.5469Z" fill="#E6A714"/>
</svg>
