<svg width="50" height="35" viewBox="0 0 50 35" fill="none" xmlns="http://www.w3.org/2000/svg">
<path d="M8.125 5H4.375C3.33594 5 2.5 5.83594 2.5 6.875V15H0.625C0.28125 15 0 15.2812 0 15.625V19.375C0 19.7188 0.28125 20 0.625 20H2.5V28.125C2.5 29.1641 3.33594 30 4.375 30H8.125C9.16406 30 10 29.1641 10 28.125V6.875C10 5.83594 9.16406 5 8.125 5ZM49.375 15H47.5V6.875C47.5 5.83594 46.6641 5 45.625 5H41.875C40.8359 5 40 5.83594 40 6.875V28.125C40 29.1641 40.8359 30 41.875 30H45.625C46.6641 30 47.5 29.1641 47.5 28.125V20H49.375C49.7188 20 50 19.7188 50 19.375V15.625C50 15.2812 49.7188 15 49.375 15ZM35.625 0H31.875C30.8359 0 30 0.835938 30 1.875V15H20V1.875C20 0.835938 19.1641 0 18.125 0H14.375C13.3359 0 12.5 0.835938 12.5 1.875V33.125C12.5 34.1641 13.3359 35 14.375 35H18.125C19.1641 35 20 34.1641 20 33.125V20H30V33.125C30 34.1641 30.8359 35 31.875 35H35.625C36.6641 35 37.5 34.1641 37.5 33.125V1.875C37.5 0.835938 36.6641 0 35.625 0Z" fill="#211A1D"/>
</svg>
